<mxfile host="app.diagrams.net" modified="2023-10-28T19:49:06.146Z" agent="Mozilla/5.0 (Windows NT 10.0; Win64; x64; rv:109.0) Gecko/20100101 Firefox/119.0" etag="MHKO-JBojCofXLwiGqT5" version="22.0.8" type="device">
  <diagram name="PÃ¡gina-1" id="19Zhi5O5k8DgSj4-5h5B">
    <mxGraphModel dx="1290" dy="538" grid="1" gridSize="10" guides="1" tooltips="1" connect="1" arrows="1" fold="1" page="1" pageScale="1" pageWidth="827" pageHeight="1169" math="0" shadow="0">
      <root>
        <mxCell id="0" />
        <mxCell id="1" parent="0" />
        <mxCell id="Yk74XSfqq71LZsLCqTSq-1" value="User" style="whiteSpace=wrap;html=1;align=center;" vertex="1" parent="1">
          <mxGeometry x="230" y="160" width="100" height="40" as="geometry" />
        </mxCell>
        <mxCell id="Yk74XSfqq71LZsLCqTSq-2" value="Group" style="whiteSpace=wrap;html=1;align=center;" vertex="1" parent="1">
          <mxGeometry x="460" y="585" width="100" height="40" as="geometry" />
        </mxCell>
        <mxCell id="Yk74XSfqq71LZsLCqTSq-3" value="Event" style="whiteSpace=wrap;html=1;align=center;" vertex="1" parent="1">
          <mxGeometry x="640" y="445" width="100" height="40" as="geometry" />
        </mxCell>
        <mxCell id="Yk74XSfqq71LZsLCqTSq-4" value="Instituition" style="whiteSpace=wrap;html=1;align=center;" vertex="1" parent="1">
          <mxGeometry x="460" y="315" width="100" height="40" as="geometry" />
        </mxCell>
        <mxCell id="Yk74XSfqq71LZsLCqTSq-57" style="edgeStyle=orthogonalEdgeStyle;rounded=0;orthogonalLoop=1;jettySize=auto;html=1;exitX=1;exitY=1;exitDx=0;exitDy=0;entryX=0.25;entryY=0;entryDx=0;entryDy=0;" edge="1" parent="1" source="Yk74XSfqq71LZsLCqTSq-5" target="Yk74XSfqq71LZsLCqTSq-1">
          <mxGeometry relative="1" as="geometry">
            <Array as="points">
              <mxPoint x="255" y="136" />
            </Array>
          </mxGeometry>
        </mxCell>
        <mxCell id="Yk74XSfqq71LZsLCqTSq-5" value="UserID" style="ellipse;whiteSpace=wrap;html=1;align=center;fontStyle=4;" vertex="1" parent="1">
          <mxGeometry x="170" y="110" width="60" height="30" as="geometry" />
        </mxCell>
        <mxCell id="Yk74XSfqq71LZsLCqTSq-62" style="edgeStyle=orthogonalEdgeStyle;rounded=0;orthogonalLoop=1;jettySize=auto;html=1;exitX=0;exitY=1;exitDx=0;exitDy=0;entryX=0.75;entryY=0;entryDx=0;entryDy=0;" edge="1" parent="1" source="Yk74XSfqq71LZsLCqTSq-6" target="Yk74XSfqq71LZsLCqTSq-4">
          <mxGeometry relative="1" as="geometry" />
        </mxCell>
        <mxCell id="Yk74XSfqq71LZsLCqTSq-6" value="InstitutionID" style="ellipse;whiteSpace=wrap;html=1;align=center;fontStyle=4;" vertex="1" parent="1">
          <mxGeometry x="535" y="250" width="80" height="30" as="geometry" />
        </mxCell>
        <mxCell id="Yk74XSfqq71LZsLCqTSq-63" style="edgeStyle=orthogonalEdgeStyle;rounded=0;orthogonalLoop=1;jettySize=auto;html=1;exitX=0.5;exitY=1;exitDx=0;exitDy=0;entryX=1;entryY=0.25;entryDx=0;entryDy=0;" edge="1" parent="1" source="Yk74XSfqq71LZsLCqTSq-7" target="Yk74XSfqq71LZsLCqTSq-4">
          <mxGeometry relative="1" as="geometry">
            <Array as="points">
              <mxPoint x="610" y="325" />
            </Array>
          </mxGeometry>
        </mxCell>
        <mxCell id="Yk74XSfqq71LZsLCqTSq-7" value="Name" style="ellipse;whiteSpace=wrap;html=1;align=center;" vertex="1" parent="1">
          <mxGeometry x="580" y="290" width="60" height="30" as="geometry" />
        </mxCell>
        <mxCell id="Yk74XSfqq71LZsLCqTSq-59" style="edgeStyle=orthogonalEdgeStyle;rounded=0;orthogonalLoop=1;jettySize=auto;html=1;exitX=1;exitY=0;exitDx=0;exitDy=0;entryX=0;entryY=0.75;entryDx=0;entryDy=0;" edge="1" parent="1" source="Yk74XSfqq71LZsLCqTSq-8" target="Yk74XSfqq71LZsLCqTSq-1">
          <mxGeometry relative="1" as="geometry">
            <Array as="points">
              <mxPoint x="201" y="190" />
            </Array>
          </mxGeometry>
        </mxCell>
        <mxCell id="Yk74XSfqq71LZsLCqTSq-8" value="Password" style="ellipse;whiteSpace=wrap;html=1;align=center;" vertex="1" parent="1">
          <mxGeometry x="150" y="200" width="60" height="20" as="geometry" />
        </mxCell>
        <mxCell id="Yk74XSfqq71LZsLCqTSq-58" style="edgeStyle=orthogonalEdgeStyle;rounded=0;orthogonalLoop=1;jettySize=auto;html=1;exitX=0.5;exitY=1;exitDx=0;exitDy=0;entryX=0;entryY=0.25;entryDx=0;entryDy=0;" edge="1" parent="1" source="Yk74XSfqq71LZsLCqTSq-9" target="Yk74XSfqq71LZsLCqTSq-1">
          <mxGeometry relative="1" as="geometry">
            <Array as="points">
              <mxPoint x="175" y="180" />
              <mxPoint x="220" y="180" />
              <mxPoint x="220" y="170" />
            </Array>
          </mxGeometry>
        </mxCell>
        <mxCell id="Yk74XSfqq71LZsLCqTSq-9" value="Email" style="ellipse;whiteSpace=wrap;html=1;align=center;" vertex="1" parent="1">
          <mxGeometry x="150" y="150" width="50" height="20" as="geometry" />
        </mxCell>
        <mxCell id="Yk74XSfqq71LZsLCqTSq-56" style="edgeStyle=orthogonalEdgeStyle;rounded=0;orthogonalLoop=1;jettySize=auto;html=1;exitX=0.5;exitY=1;exitDx=0;exitDy=0;" edge="1" parent="1" source="Yk74XSfqq71LZsLCqTSq-10" target="Yk74XSfqq71LZsLCqTSq-1">
          <mxGeometry relative="1" as="geometry" />
        </mxCell>
        <mxCell id="Yk74XSfqq71LZsLCqTSq-10" value="Name" style="ellipse;whiteSpace=wrap;html=1;align=center;" vertex="1" parent="1">
          <mxGeometry x="250" y="100" width="50" height="20" as="geometry" />
        </mxCell>
        <mxCell id="Yk74XSfqq71LZsLCqTSq-11" value="" style="endArrow=none;html=1;rounded=0;entryX=0.5;entryY=0;entryDx=0;entryDy=0;" edge="1" parent="1" target="Yk74XSfqq71LZsLCqTSq-4">
          <mxGeometry relative="1" as="geometry">
            <mxPoint x="330" y="180" as="sourcePoint" />
            <mxPoint x="460" y="180" as="targetPoint" />
            <Array as="points">
              <mxPoint x="510" y="180" />
            </Array>
          </mxGeometry>
        </mxCell>
        <mxCell id="Yk74XSfqq71LZsLCqTSq-12" value="M" style="resizable=0;html=1;whiteSpace=wrap;align=left;verticalAlign=bottom;" connectable="0" vertex="1" parent="Yk74XSfqq71LZsLCqTSq-11">
          <mxGeometry x="-1" relative="1" as="geometry" />
        </mxCell>
        <mxCell id="Yk74XSfqq71LZsLCqTSq-13" value="N" style="resizable=0;html=1;whiteSpace=wrap;align=right;verticalAlign=bottom;" connectable="0" vertex="1" parent="Yk74XSfqq71LZsLCqTSq-11">
          <mxGeometry x="1" relative="1" as="geometry" />
        </mxCell>
        <mxCell id="Yk74XSfqq71LZsLCqTSq-69" style="edgeStyle=orthogonalEdgeStyle;rounded=0;orthogonalLoop=1;jettySize=auto;html=1;exitX=0.5;exitY=0;exitDx=0;exitDy=0;entryX=0.5;entryY=1;entryDx=0;entryDy=0;" edge="1" parent="1" source="Yk74XSfqq71LZsLCqTSq-14" target="Yk74XSfqq71LZsLCqTSq-2">
          <mxGeometry relative="1" as="geometry" />
        </mxCell>
        <mxCell id="Yk74XSfqq71LZsLCqTSq-14" value="Name" style="ellipse;whiteSpace=wrap;html=1;align=center;" vertex="1" parent="1">
          <mxGeometry x="440" y="660" width="80" height="30" as="geometry" />
        </mxCell>
        <mxCell id="Yk74XSfqq71LZsLCqTSq-70" style="edgeStyle=orthogonalEdgeStyle;rounded=0;orthogonalLoop=1;jettySize=auto;html=1;exitX=0.5;exitY=0;exitDx=0;exitDy=0;entryX=0.75;entryY=1;entryDx=0;entryDy=0;" edge="1" parent="1" source="Yk74XSfqq71LZsLCqTSq-15" target="Yk74XSfqq71LZsLCqTSq-2">
          <mxGeometry relative="1" as="geometry" />
        </mxCell>
        <mxCell id="Yk74XSfqq71LZsLCqTSq-15" value="GroupID" style="ellipse;whiteSpace=wrap;html=1;align=center;fontStyle=4;" vertex="1" parent="1">
          <mxGeometry x="535" y="660" width="70" height="30" as="geometry" />
        </mxCell>
        <mxCell id="Yk74XSfqq71LZsLCqTSq-16" value="Class" style="whiteSpace=wrap;html=1;align=center;" vertex="1" parent="1">
          <mxGeometry x="460" y="445" width="100" height="40" as="geometry" />
        </mxCell>
        <mxCell id="Yk74XSfqq71LZsLCqTSq-17" value="Message" style="whiteSpace=wrap;html=1;align=center;" vertex="1" parent="1">
          <mxGeometry x="230" y="470" width="100" height="40" as="geometry" />
        </mxCell>
        <mxCell id="Yk74XSfqq71LZsLCqTSq-68" style="edgeStyle=orthogonalEdgeStyle;rounded=0;orthogonalLoop=1;jettySize=auto;html=1;exitX=1;exitY=0.5;exitDx=0;exitDy=0;entryX=0.25;entryY=1;entryDx=0;entryDy=0;" edge="1" parent="1" source="Yk74XSfqq71LZsLCqTSq-18" target="Yk74XSfqq71LZsLCqTSq-17">
          <mxGeometry relative="1" as="geometry" />
        </mxCell>
        <mxCell id="Yk74XSfqq71LZsLCqTSq-18" value="MessageID" style="ellipse;whiteSpace=wrap;html=1;align=center;fontStyle=4;" vertex="1" parent="1">
          <mxGeometry x="140" y="550" width="80" height="30" as="geometry" />
        </mxCell>
        <mxCell id="Yk74XSfqq71LZsLCqTSq-66" style="edgeStyle=orthogonalEdgeStyle;rounded=0;orthogonalLoop=1;jettySize=auto;html=1;exitX=1;exitY=0.5;exitDx=0;exitDy=0;entryX=0;entryY=0.5;entryDx=0;entryDy=0;" edge="1" parent="1" source="Yk74XSfqq71LZsLCqTSq-19" target="Yk74XSfqq71LZsLCqTSq-17">
          <mxGeometry relative="1" as="geometry" />
        </mxCell>
        <mxCell id="Yk74XSfqq71LZsLCqTSq-19" value="Content" style="ellipse;whiteSpace=wrap;html=1;align=center;" vertex="1" parent="1">
          <mxGeometry x="130" y="475" width="60" height="25" as="geometry" />
        </mxCell>
        <mxCell id="Yk74XSfqq71LZsLCqTSq-67" style="edgeStyle=orthogonalEdgeStyle;rounded=0;orthogonalLoop=1;jettySize=auto;html=1;exitX=0.5;exitY=0;exitDx=0;exitDy=0;entryX=0.75;entryY=1;entryDx=0;entryDy=0;" edge="1" parent="1" source="Yk74XSfqq71LZsLCqTSq-20" target="Yk74XSfqq71LZsLCqTSq-17">
          <mxGeometry relative="1" as="geometry" />
        </mxCell>
        <mxCell id="Yk74XSfqq71LZsLCqTSq-20" value="Date" style="ellipse;whiteSpace=wrap;html=1;align=center;" vertex="1" parent="1">
          <mxGeometry x="270" y="560" width="50" height="20" as="geometry" />
        </mxCell>
        <mxCell id="Yk74XSfqq71LZsLCqTSq-21" value="" style="endArrow=none;html=1;rounded=0;exitX=0;exitY=0.5;exitDx=0;exitDy=0;entryX=1;entryY=0.5;entryDx=0;entryDy=0;edgeStyle=orthogonalEdgeStyle;" edge="1" parent="1" source="Yk74XSfqq71LZsLCqTSq-16" target="Yk74XSfqq71LZsLCqTSq-17">
          <mxGeometry relative="1" as="geometry">
            <mxPoint x="310" y="340" as="sourcePoint" />
            <mxPoint x="470" y="340" as="targetPoint" />
          </mxGeometry>
        </mxCell>
        <mxCell id="Yk74XSfqq71LZsLCqTSq-22" value="N" style="resizable=0;html=1;whiteSpace=wrap;align=right;verticalAlign=bottom;" connectable="0" vertex="1" parent="Yk74XSfqq71LZsLCqTSq-21">
          <mxGeometry x="1" relative="1" as="geometry" />
        </mxCell>
        <mxCell id="Yk74XSfqq71LZsLCqTSq-23" value="" style="endArrow=none;html=1;rounded=0;entryX=1;entryY=1;entryDx=0;entryDy=0;exitX=0;exitY=0.5;exitDx=0;exitDy=0;" edge="1" parent="1" source="Yk74XSfqq71LZsLCqTSq-2" target="Yk74XSfqq71LZsLCqTSq-17">
          <mxGeometry relative="1" as="geometry">
            <mxPoint x="330" y="370" as="sourcePoint" />
            <mxPoint x="490" y="370" as="targetPoint" />
          </mxGeometry>
        </mxCell>
        <mxCell id="Yk74XSfqq71LZsLCqTSq-24" value="N" style="resizable=0;html=1;whiteSpace=wrap;align=right;verticalAlign=bottom;" connectable="0" vertex="1" parent="Yk74XSfqq71LZsLCqTSq-23">
          <mxGeometry x="1" relative="1" as="geometry" />
        </mxCell>
        <mxCell id="Yk74XSfqq71LZsLCqTSq-25" value="" style="endArrow=none;html=1;rounded=0;entryX=0.5;entryY=0;entryDx=0;entryDy=0;" edge="1" parent="1" source="Yk74XSfqq71LZsLCqTSq-4" target="Yk74XSfqq71LZsLCqTSq-16">
          <mxGeometry relative="1" as="geometry">
            <mxPoint x="320" y="525" as="sourcePoint" />
            <mxPoint x="480" y="525" as="targetPoint" />
          </mxGeometry>
        </mxCell>
        <mxCell id="Yk74XSfqq71LZsLCqTSq-26" value="N" style="resizable=0;html=1;whiteSpace=wrap;align=right;verticalAlign=bottom;" connectable="0" vertex="1" parent="Yk74XSfqq71LZsLCqTSq-25">
          <mxGeometry x="1" relative="1" as="geometry" />
        </mxCell>
        <mxCell id="Yk74XSfqq71LZsLCqTSq-27" value="" style="endArrow=none;html=1;rounded=0;entryX=0.5;entryY=0;entryDx=0;entryDy=0;exitX=0.5;exitY=1;exitDx=0;exitDy=0;" edge="1" parent="1" source="Yk74XSfqq71LZsLCqTSq-16" target="Yk74XSfqq71LZsLCqTSq-2">
          <mxGeometry relative="1" as="geometry">
            <mxPoint x="320" y="525" as="sourcePoint" />
            <mxPoint x="480" y="525" as="targetPoint" />
          </mxGeometry>
        </mxCell>
        <mxCell id="Yk74XSfqq71LZsLCqTSq-28" value="N" style="resizable=0;html=1;whiteSpace=wrap;align=right;verticalAlign=bottom;" connectable="0" vertex="1" parent="Yk74XSfqq71LZsLCqTSq-27">
          <mxGeometry x="1" relative="1" as="geometry" />
        </mxCell>
        <mxCell id="Yk74XSfqq71LZsLCqTSq-64" style="edgeStyle=orthogonalEdgeStyle;rounded=0;orthogonalLoop=1;jettySize=auto;html=1;exitX=0.5;exitY=1;exitDx=0;exitDy=0;entryX=0.75;entryY=0;entryDx=0;entryDy=0;" edge="1" parent="1" source="Yk74XSfqq71LZsLCqTSq-30" target="Yk74XSfqq71LZsLCqTSq-16">
          <mxGeometry relative="1" as="geometry" />
        </mxCell>
        <mxCell id="Yk74XSfqq71LZsLCqTSq-30" value="Name" style="ellipse;whiteSpace=wrap;html=1;align=center;" vertex="1" parent="1">
          <mxGeometry x="520" y="395" width="80" height="30" as="geometry" />
        </mxCell>
        <mxCell id="Yk74XSfqq71LZsLCqTSq-65" style="edgeStyle=orthogonalEdgeStyle;rounded=0;orthogonalLoop=1;jettySize=auto;html=1;exitX=0.5;exitY=1;exitDx=0;exitDy=0;entryX=0.25;entryY=0;entryDx=0;entryDy=0;" edge="1" parent="1" source="Yk74XSfqq71LZsLCqTSq-31" target="Yk74XSfqq71LZsLCqTSq-16">
          <mxGeometry relative="1" as="geometry" />
        </mxCell>
        <mxCell id="Yk74XSfqq71LZsLCqTSq-31" value="ClassID" style="ellipse;whiteSpace=wrap;html=1;align=center;fontStyle=4;" vertex="1" parent="1">
          <mxGeometry x="420" y="395" width="70" height="30" as="geometry" />
        </mxCell>
        <mxCell id="Yk74XSfqq71LZsLCqTSq-72" style="edgeStyle=orthogonalEdgeStyle;rounded=0;orthogonalLoop=1;jettySize=auto;html=1;exitX=0.5;exitY=0;exitDx=0;exitDy=0;entryX=0.75;entryY=1;entryDx=0;entryDy=0;" edge="1" parent="1" source="Yk74XSfqq71LZsLCqTSq-32" target="Yk74XSfqq71LZsLCqTSq-3">
          <mxGeometry relative="1" as="geometry">
            <Array as="points">
              <mxPoint x="760" y="500" />
              <mxPoint x="715" y="500" />
            </Array>
          </mxGeometry>
        </mxCell>
        <mxCell id="Yk74XSfqq71LZsLCqTSq-32" value="Name" style="ellipse;whiteSpace=wrap;html=1;align=center;" vertex="1" parent="1">
          <mxGeometry x="730" y="520" width="60" height="30" as="geometry" />
        </mxCell>
        <mxCell id="Yk74XSfqq71LZsLCqTSq-73" style="edgeStyle=orthogonalEdgeStyle;rounded=0;orthogonalLoop=1;jettySize=auto;html=1;exitX=0;exitY=0;exitDx=0;exitDy=0;entryX=1;entryY=0.75;entryDx=0;entryDy=0;" edge="1" parent="1" source="Yk74XSfqq71LZsLCqTSq-33" target="Yk74XSfqq71LZsLCqTSq-3">
          <mxGeometry relative="1" as="geometry" />
        </mxCell>
        <mxCell id="Yk74XSfqq71LZsLCqTSq-33" value="EndDate" style="ellipse;whiteSpace=wrap;html=1;align=center;" vertex="1" parent="1">
          <mxGeometry x="790" y="475" width="70" height="30" as="geometry" />
        </mxCell>
        <mxCell id="Yk74XSfqq71LZsLCqTSq-74" style="edgeStyle=orthogonalEdgeStyle;rounded=0;orthogonalLoop=1;jettySize=auto;html=1;exitX=0;exitY=1;exitDx=0;exitDy=0;entryX=1;entryY=0.25;entryDx=0;entryDy=0;" edge="1" parent="1" source="Yk74XSfqq71LZsLCqTSq-34" target="Yk74XSfqq71LZsLCqTSq-3">
          <mxGeometry relative="1" as="geometry" />
        </mxCell>
        <mxCell id="Yk74XSfqq71LZsLCqTSq-34" value="StartDate" style="ellipse;whiteSpace=wrap;html=1;align=center;" vertex="1" parent="1">
          <mxGeometry x="790" y="425" width="70" height="25" as="geometry" />
        </mxCell>
        <mxCell id="Yk74XSfqq71LZsLCqTSq-35" value="" style="endArrow=none;html=1;rounded=0;entryX=0.25;entryY=0;entryDx=0;entryDy=0;exitX=1;exitY=0.5;exitDx=0;exitDy=0;" edge="1" parent="1" source="Yk74XSfqq71LZsLCqTSq-4" target="Yk74XSfqq71LZsLCqTSq-3">
          <mxGeometry relative="1" as="geometry">
            <mxPoint x="570" y="354" as="sourcePoint" />
            <mxPoint x="730" y="354" as="targetPoint" />
          </mxGeometry>
        </mxCell>
        <mxCell id="Yk74XSfqq71LZsLCqTSq-36" value="N" style="resizable=0;html=1;whiteSpace=wrap;align=right;verticalAlign=bottom;" connectable="0" vertex="1" parent="Yk74XSfqq71LZsLCqTSq-35">
          <mxGeometry x="1" relative="1" as="geometry" />
        </mxCell>
        <mxCell id="Yk74XSfqq71LZsLCqTSq-37" value="" style="endArrow=none;html=1;rounded=0;entryX=0.75;entryY=0;entryDx=0;entryDy=0;edgeStyle=orthogonalEdgeStyle;" edge="1" parent="1" target="Yk74XSfqq71LZsLCqTSq-17">
          <mxGeometry relative="1" as="geometry">
            <mxPoint x="460" y="350" as="sourcePoint" />
            <mxPoint x="780" y="169" as="targetPoint" />
            <Array as="points">
              <mxPoint x="460" y="330" />
              <mxPoint x="305" y="330" />
            </Array>
          </mxGeometry>
        </mxCell>
        <mxCell id="Yk74XSfqq71LZsLCqTSq-38" value="N" style="resizable=0;html=1;whiteSpace=wrap;align=right;verticalAlign=bottom;" connectable="0" vertex="1" parent="Yk74XSfqq71LZsLCqTSq-37">
          <mxGeometry x="1" relative="1" as="geometry" />
        </mxCell>
        <mxCell id="Yk74XSfqq71LZsLCqTSq-39" value="" style="endArrow=none;html=1;rounded=0;entryX=0.41;entryY=1.025;entryDx=0;entryDy=0;entryPerimeter=0;exitX=1;exitY=0.5;exitDx=0;exitDy=0;" edge="1" parent="1" source="Yk74XSfqq71LZsLCqTSq-2" target="Yk74XSfqq71LZsLCqTSq-3">
          <mxGeometry relative="1" as="geometry">
            <mxPoint x="680" y="630" as="sourcePoint" />
            <mxPoint x="800" y="189" as="targetPoint" />
          </mxGeometry>
        </mxCell>
        <mxCell id="Yk74XSfqq71LZsLCqTSq-40" value="N" style="resizable=0;html=1;whiteSpace=wrap;align=right;verticalAlign=bottom;" connectable="0" vertex="1" parent="Yk74XSfqq71LZsLCqTSq-39">
          <mxGeometry x="1" relative="1" as="geometry" />
        </mxCell>
        <mxCell id="Yk74XSfqq71LZsLCqTSq-41" value="" style="endArrow=none;html=1;rounded=0;entryX=0;entryY=0.5;entryDx=0;entryDy=0;exitX=1;exitY=0.5;exitDx=0;exitDy=0;" edge="1" parent="1" source="Yk74XSfqq71LZsLCqTSq-16" target="Yk74XSfqq71LZsLCqTSq-3">
          <mxGeometry relative="1" as="geometry">
            <mxPoint x="570" y="530" as="sourcePoint" />
            <mxPoint x="720" y="290" as="targetPoint" />
          </mxGeometry>
        </mxCell>
        <mxCell id="Yk74XSfqq71LZsLCqTSq-42" value="N" style="resizable=0;html=1;whiteSpace=wrap;align=right;verticalAlign=bottom;" connectable="0" vertex="1" parent="Yk74XSfqq71LZsLCqTSq-41">
          <mxGeometry x="1" relative="1" as="geometry" />
        </mxCell>
        <mxCell id="Yk74XSfqq71LZsLCqTSq-43" value="" style="endArrow=none;html=1;rounded=0;exitX=0.25;exitY=1;exitDx=0;exitDy=0;entryX=0;entryY=1;entryDx=0;entryDy=0;edgeStyle=orthogonalEdgeStyle;" edge="1" parent="1" source="Yk74XSfqq71LZsLCqTSq-1" target="Yk74XSfqq71LZsLCqTSq-2">
          <mxGeometry relative="1" as="geometry">
            <mxPoint x="270" y="304.5" as="sourcePoint" />
            <mxPoint x="430" y="304.5" as="targetPoint" />
            <Array as="points">
              <mxPoint x="255" y="300" />
              <mxPoint x="110" y="300" />
              <mxPoint x="110" y="620" />
              <mxPoint x="460" y="620" />
            </Array>
          </mxGeometry>
        </mxCell>
        <mxCell id="Yk74XSfqq71LZsLCqTSq-44" value="M" style="resizable=0;html=1;whiteSpace=wrap;align=left;verticalAlign=bottom;" connectable="0" vertex="1" parent="Yk74XSfqq71LZsLCqTSq-43">
          <mxGeometry x="-1" relative="1" as="geometry" />
        </mxCell>
        <mxCell id="Yk74XSfqq71LZsLCqTSq-45" value="N" style="resizable=0;html=1;whiteSpace=wrap;align=right;verticalAlign=bottom;" connectable="0" vertex="1" parent="Yk74XSfqq71LZsLCqTSq-43">
          <mxGeometry x="1" relative="1" as="geometry" />
        </mxCell>
        <mxCell id="Yk74XSfqq71LZsLCqTSq-46" value="" style="endArrow=none;html=1;rounded=0;exitX=0.75;exitY=1;exitDx=0;exitDy=0;entryX=0;entryY=0.25;entryDx=0;entryDy=0;edgeStyle=orthogonalEdgeStyle;" edge="1" parent="1" source="Yk74XSfqq71LZsLCqTSq-1" target="Yk74XSfqq71LZsLCqTSq-16">
          <mxGeometry relative="1" as="geometry">
            <mxPoint x="190" y="690" as="sourcePoint" />
            <mxPoint x="350" y="690" as="targetPoint" />
            <Array as="points">
              <mxPoint x="305" y="290" />
              <mxPoint x="390" y="290" />
              <mxPoint x="390" y="455" />
            </Array>
          </mxGeometry>
        </mxCell>
        <mxCell id="Yk74XSfqq71LZsLCqTSq-47" value="M" style="resizable=0;html=1;whiteSpace=wrap;align=left;verticalAlign=bottom;" connectable="0" vertex="1" parent="Yk74XSfqq71LZsLCqTSq-46">
          <mxGeometry x="-1" relative="1" as="geometry" />
        </mxCell>
        <mxCell id="Yk74XSfqq71LZsLCqTSq-48" value="N" style="resizable=0;html=1;whiteSpace=wrap;align=right;verticalAlign=bottom;" connectable="0" vertex="1" parent="Yk74XSfqq71LZsLCqTSq-46">
          <mxGeometry x="1" relative="1" as="geometry" />
        </mxCell>
        <mxCell id="Yk74XSfqq71LZsLCqTSq-49" value="EventID" style="ellipse;whiteSpace=wrap;html=1;align=center;fontStyle=4;" vertex="1" parent="1">
          <mxGeometry x="710" y="390" width="70" height="30" as="geometry" />
        </mxCell>
        <mxCell id="Yk74XSfqq71LZsLCqTSq-50" value="Description" style="ellipse;whiteSpace=wrap;html=1;align=center;" vertex="1" parent="1">
          <mxGeometry x="660" y="530" width="70" height="30" as="geometry" />
        </mxCell>
        <mxCell id="Yk74XSfqq71LZsLCqTSq-51" value="Role" style="whiteSpace=wrap;html=1;align=center;" vertex="1" parent="1">
          <mxGeometry x="535" y="110" width="100" height="40" as="geometry" />
        </mxCell>
        <mxCell id="Yk74XSfqq71LZsLCqTSq-52" value="" style="endArrow=none;html=1;rounded=0;entryX=0.25;entryY=1;entryDx=0;entryDy=0;" edge="1" parent="1" target="Yk74XSfqq71LZsLCqTSq-51">
          <mxGeometry relative="1" as="geometry">
            <mxPoint x="510" y="180" as="sourcePoint" />
            <mxPoint x="490" y="410" as="targetPoint" />
          </mxGeometry>
        </mxCell>
        <mxCell id="Yk74XSfqq71LZsLCqTSq-53" value="N" style="resizable=0;html=1;whiteSpace=wrap;align=right;verticalAlign=bottom;" connectable="0" vertex="1" parent="Yk74XSfqq71LZsLCqTSq-52">
          <mxGeometry x="1" relative="1" as="geometry" />
        </mxCell>
        <mxCell id="Yk74XSfqq71LZsLCqTSq-61" style="edgeStyle=orthogonalEdgeStyle;rounded=0;orthogonalLoop=1;jettySize=auto;html=1;exitX=0;exitY=0.5;exitDx=0;exitDy=0;entryX=1;entryY=0.5;entryDx=0;entryDy=0;" edge="1" parent="1" source="Yk74XSfqq71LZsLCqTSq-54" target="Yk74XSfqq71LZsLCqTSq-51">
          <mxGeometry relative="1" as="geometry" />
        </mxCell>
        <mxCell id="Yk74XSfqq71LZsLCqTSq-54" value="RoleID" style="ellipse;whiteSpace=wrap;html=1;align=center;fontStyle=4;" vertex="1" parent="1">
          <mxGeometry x="665" y="115" width="50" height="30" as="geometry" />
        </mxCell>
        <mxCell id="Yk74XSfqq71LZsLCqTSq-60" style="edgeStyle=orthogonalEdgeStyle;rounded=0;orthogonalLoop=1;jettySize=auto;html=1;exitX=0;exitY=0.5;exitDx=0;exitDy=0;entryX=0.5;entryY=0;entryDx=0;entryDy=0;" edge="1" parent="1" source="Yk74XSfqq71LZsLCqTSq-55" target="Yk74XSfqq71LZsLCqTSq-51">
          <mxGeometry relative="1" as="geometry" />
        </mxCell>
        <mxCell id="Yk74XSfqq71LZsLCqTSq-55" value="Name" style="ellipse;whiteSpace=wrap;html=1;align=center;" vertex="1" parent="1">
          <mxGeometry x="640" y="80" width="50" height="20" as="geometry" />
        </mxCell>
        <mxCell id="Yk74XSfqq71LZsLCqTSq-71" style="edgeStyle=orthogonalEdgeStyle;rounded=0;orthogonalLoop=1;jettySize=auto;html=1;exitX=0.5;exitY=0;exitDx=0;exitDy=0;entryX=0.65;entryY=0.975;entryDx=0;entryDy=0;entryPerimeter=0;" edge="1" parent="1" source="Yk74XSfqq71LZsLCqTSq-50" target="Yk74XSfqq71LZsLCqTSq-3">
          <mxGeometry relative="1" as="geometry" />
        </mxCell>
        <mxCell id="Yk74XSfqq71LZsLCqTSq-76" style="edgeStyle=orthogonalEdgeStyle;rounded=0;orthogonalLoop=1;jettySize=auto;html=1;exitX=0;exitY=0.5;exitDx=0;exitDy=0;entryX=0.57;entryY=0.025;entryDx=0;entryDy=0;entryPerimeter=0;" edge="1" parent="1" source="Yk74XSfqq71LZsLCqTSq-49" target="Yk74XSfqq71LZsLCqTSq-3">
          <mxGeometry relative="1" as="geometry">
            <Array as="points">
              <mxPoint x="697" y="405" />
            </Array>
          </mxGeometry>
        </mxCell>
        <mxCell id="Yk74XSfqq71LZsLCqTSq-78" value="" style="endArrow=none;html=1;rounded=0;exitX=0.5;exitY=1;exitDx=0;exitDy=0;entryX=0.5;entryY=0;entryDx=0;entryDy=0;" edge="1" parent="1" source="Yk74XSfqq71LZsLCqTSq-1" target="Yk74XSfqq71LZsLCqTSq-17">
          <mxGeometry relative="1" as="geometry">
            <mxPoint x="340" y="390" as="sourcePoint" />
            <mxPoint x="500" y="390" as="targetPoint" />
          </mxGeometry>
        </mxCell>
        <mxCell id="Yk74XSfqq71LZsLCqTSq-79" value="N" style="resizable=0;html=1;whiteSpace=wrap;align=right;verticalAlign=bottom;" connectable="0" vertex="1" parent="Yk74XSfqq71LZsLCqTSq-78">
          <mxGeometry x="1" relative="1" as="geometry" />
        </mxCell>
      </root>
    </mxGraphModel>
  </diagram>
</mxfile>
